# xmcd
#
# Track frame offsets:
#	150
#	16849
#	31584
#	48511
#	65902
#	82556
#	96954
#	115679
#	134196
#	151215
#	173513
#	201299
#
# Disc length: 2991 seconds
#
# Revision: 0
# Processed by: cddbd v1.5.2PL0 Copyright (c) Steve Scherf et al.
# Submitted via: EasyCDDAExtractor 8.0.2.1
#
DISCID=920bad0c
DTITLE=Natalia Kukulska - Sexi Flexi
DYEAR=2007
DGENRE=pop - funk
TTITLE0=In The Spot (feat. Mika Urbaniak)
TTITLE1=Sexi Flexi
TTITLE2=Taki stan
TTITLE3=Pó³ na pó³ (feat. Bartek Królik)
TTITLE4=If You Come My Way
TTITLE5=Second Chance
TTITLE6=That's The Way The Story Goes
TTITLE7=Each Other (feat. Scott Parker)
TTITLE8=Ma³a Rzecz
TTITLE9=I Look @ U
TTITLE10=Fantasies
TTITLE11=Sexi Flexi (Seb Skalski RMX)
EXTD=
EXTT0=
EXTT1=
EXTT2=
EXTT3=
EXTT4=
EXTT5=
EXTT6=
EXTT7=
EXTT8=
EXTT9=
EXTT10=
EXTT11=
PLAYORDER=
